HIERARCHY
ROOT Joint1
{
	OFFSET 0.000000 0.000000 0.000000
	CHANNELS 6 Xposition Yposition Zposition Xrotation Yrotation Zrotation
	JOINT Joint2
	{
		OFFSET -0.000000 0.000000 1.456275
		CHANNELS 6 Xposition Yposition Zposition Xrotation Yrotation Zrotation
		JOINT Joint3
		{
			OFFSET -0.000000 0.000002 1.471446
			CHANNELS 6 Xposition Yposition Zposition Xrotation Yrotation Zrotation
			JOINT Joint4
			{
				OFFSET 0.625745 0.000000 0.917755
				CHANNELS 6 Xposition Yposition Zposition Xrotation Yrotation Zrotation
				JOINT Joint5
				{
					OFFSET -0.629534 0.000001 0.940221
					CHANNELS 6 Xposition Yposition Zposition Xrotation Yrotation Zrotation
					JOINT Joint6
					{
						OFFSET -0.000001 0.113772 1.960660
						CHANNELS 6 Xposition Yposition Zposition Xrotation Yrotation Zrotation
						JOINT Joint7
						{
							OFFSET -0.669733 -0.113771 0.388340
							CHANNELS 6 Xposition Yposition Zposition Xrotation Yrotation Zrotation
							End Site
							{
								OFFSET 0.005509 0.005509 0.438980
							}
						}
					}
				}
			}
		}
	}
}
MOTION
Frames: 27
Frame Time: 0.041667
0.000000 0.000000 0.000000 -0.000000 1.019410 87.639694 -0.000000 0.000000 1.456275 0.000000 -67.133321 0.000000 -0.000000 0.000002 1.471446 -0.000001 -1.133456 42.816407 0.625745 0.000000 0.917755 0.000772 90.299267 -0.000513 -0.629533 0.000001 0.940220 -0.000000 1.709738 81.572116 -0.000001 0.113772 1.960661 -88.303882 111.628766 0.000015 -0.669733 -0.113772 0.388340 0.311500 2.519800 43.306258 
0.000000 0.000000 0.000000 -0.000000 1.019410 87.599334 -0.000000 0.000000 1.456275 0.000000 -67.123131 -0.000000 -0.000000 0.000002 1.471446 -0.000001 -1.133457 42.796678 0.625745 0.000001 0.917755 0.000492 90.319853 -0.000174 -0.629533 0.000001 0.940221 -0.000001 1.709738 81.534557 -0.000001 0.113772 1.960660 -88.303868 111.618794 0.000004 -0.669733 -0.113772 0.388340 0.311522 2.520548 43.348431 
0.000000 0.000000 0.000000 -0.000000 1.019410 87.527153 -0.000000 0.000000 1.456275 -0.000000 -67.104881 -0.000000 -0.000000 0.000002 1.471446 -0.000002 -1.133456 42.761390 0.625745 0.000000 0.917755 -0.000176 90.356682 0.000186 -0.629533 0.000001 0.940221 -0.000000 1.709737 81.467361 -0.000001 0.113772 1.960661 -88.303889 111.600968 0.000010 -0.669733 -0.113771 0.388340 0.311566 2.521889 43.423880 
0.000000 0.000000 0.000000 -0.000000 1.019410 87.419106 -0.000000 -0.000000 1.456275 -0.000000 -67.077573 0.000000 -0.000000 0.000002 1.471446 -0.000001 -1.133456 42.708585 0.625745 0.000001 0.917755 0.000501 90.411815 -0.000135 -0.629534 0.000001 0.940221 -0.000001 1.709736 81.366780 -0.000000 0.113772 1.960661 -88.303868 111.574275 0.000010 -0.669733 -0.113771 0.388340 0.311615 2.523892 43.536807 
0.000000 0.000000 0.000000 -0.000000 1.019410 87.271151 -0.000000 0.000000 1.456275 -0.000000 -67.040178 0.000000 -0.000000 0.000002 1.471445 -0.000001 -1.133456 42.636250 0.625745 0.000001 0.917755 0.000424 90.487309 -0.000114 -0.629534 0.000001 0.940221 0.000002 1.709735 81.229063 -0.000001 0.113772 1.960661 -88.303875 111.537727 0.000001 -0.669733 -0.113771 0.388340 0.311678 2.526636 43.691443 
0.000000 0.000000 0.000000 -0.000000 1.019410 87.079263 -0.000000 0.000000 1.456275 0.000001 -66.991691 -0.000000 -0.000000 0.000002 1.471446 -0.000001 -1.133455 42.542455 0.625744 0.000001 0.917754 0.000353 90.585206 -0.000095 -0.629534 0.000001 0.940220 -0.000001 1.709737 81.050433 -0.000001 0.113772 1.960661 -88.303868 111.490318 0.000012 -0.669733 -0.113771 0.388339 0.311757 2.530193 43.891998 
0.000000 0.000000 0.000000 -0.000000 1.019410 86.839401 -0.000000 0.000000 1.456275 0.000001 -66.931073 0.000001 -0.000001 0.000002 1.471446 -0.000001 -1.133458 42.425198 0.625744 0.000001 0.917755 0.000361 90.707596 -0.000286 -0.629533 0.000001 0.940220 -0.000002 1.709738 80.827154 -0.000001 0.113772 1.960661 -88.303882 111.431060 0.000006 -0.669733 -0.113772 0.388340 0.311833 2.534640 44.142703 
0.000000 0.000000 0.000000 -0.000000 1.019410 86.547526 -0.000000 -0.000000 1.456275 0.000000 -66.857300 0.000000 -0.000001 0.000002 1.471445 -0.000001 -1.133458 42.282522 0.625745 0.000000 0.917755 0.000212 90.856522 -0.000094 -0.629533 0.000001 0.940221 -0.000002 1.709737 80.555463 -0.000001 0.113772 1.960660 -88.303868 111.358960 0.000012 -0.669733 -0.113770 0.388340 0.311903 2.540059 44.447760 
0.000000 0.000000 0.000000 -0.000000 1.019410 86.199617 -0.000000 -0.000000 1.456275 -0.000001 -66.769375 -0.000000 -0.000000 0.000002 1.471446 -0.000002 -1.133457 42.112450 0.625745 0.000001 0.917755 0.000342 91.034039 -0.000030 -0.629533 0.000001 0.940221 -0.000007 1.709735 80.231596 -0.000001 0.113772 1.960660 -88.303868 111.273002 -0.000001 -0.669733 -0.113771 0.388340 0.311941 2.546513 44.811389 
0.000000 0.000000 0.000000 -0.000000 1.019410 85.791629 -0.000000 -0.000000 1.456275 0.000001 -66.666266 -0.000001 -0.000000 0.000002 1.471445 -0.000001 -1.133456 41.913012 0.625744 0.000000 0.917755 0.000147 91.242202 -0.000124 -0.629534 0.000001 0.940221 -0.000004 1.709739 79.851810 -0.000001 0.113772 1.960661 -88.303889 111.172216 0.000010 -0.669733 -0.113771 0.388340 0.311936 2.554079 45.237822 
0.000000 0.000000 0.000000 -0.000000 1.019410 85.319520 -0.000000 0.000000 1.456275 0.000001 -66.546950 0.000000 -0.000000 0.000002 1.471446 -0.000001 -1.133456 41.682227 0.625744 0.000001 0.917755 0.000106 91.483082 0.000028 -0.629534 0.000001 0.940220 -0.000004 1.709738 79.412342 -0.000001 0.113772 1.960660 -88.303882 111.055577 0.000003 -0.669733 -0.113771 0.388340 0.311862 2.562832 45.731265 
0.000000 0.000000 0.000000 -0.000000 1.019410 84.779265 -0.000000 0.000000 1.456275 0.000000 -66.410407 0.000001 -0.000000 0.000002 1.471446 -0.000002 -1.133456 41.418134 0.625745 0.000000 0.917755 0.000173 91.758742 0.000038 -0.629534 0.000001 0.940220 -0.000007 1.709735 78.909435 -0.000001 0.113772 1.960660 -88.303868 110.922101 0.000003 -0.669733 -0.113771 0.388340 0.311689 2.572852 46.295934 
0.000000 0.000000 0.000000 -0.000000 1.019410 84.166830 -0.000000 -0.000000 1.456275 0.000001 -66.255628 -0.000001 -0.000000 0.000002 1.471446 -0.000001 -1.133456 41.118757 0.625745 0.000000 0.917755 0.000029 92.071223 0.000044 -0.629533 0.000001 0.940221 -0.000004 1.709737 78.339340 -0.000001 0.113772 1.960660 -88.303882 110.770813 0.000000 -0.669733 -0.113772 0.388340 0.311369 2.584207 46.936059 
0.000000 0.000000 0.000000 -0.000000 1.019410 83.478169 -0.000000 0.000000 1.456275 0.000000 -66.081582 -0.000001 -0.000000 0.000002 1.471446 -0.000001 -1.133455 40.782110 0.625744 0.000000 0.917755 0.000075 92.422595 -0.000023 -0.629533 0.000001 0.940221 -0.000003 1.709740 77.698292 -0.000001 0.113772 1.960660 -88.303882 110.600679 0.000006 -0.669733 -0.113771 0.388341 0.310856 2.596974 47.655862 
0.000000 0.000000 0.000000 -0.000000 1.019410 82.713686 -0.000000 0.000000 1.456275 -0.000001 -65.888369 -0.000002 -0.000000 0.000002 1.471446 -0.000001 -1.133457 40.408413 0.625744 0.000000 0.917755 0.000047 92.812654 0.000015 -0.629533 0.000001 0.940220 -0.000007 1.709736 76.986662 -0.000001 0.113772 1.960661 -88.303882 110.411818 0.000003 -0.669733 -0.113771 0.388340 0.310102 2.611132 48.454923 
0.000000 0.000000 0.000000 -0.000000 1.019410 81.891496 -0.000000 0.000000 1.456275 -0.000002 -65.680574 0.000000 -0.000000 0.000002 1.471445 -0.000001 -1.133455 40.006494 0.625745 0.000000 0.917755 0.000056 93.232157 -0.000017 -0.629534 0.000001 0.940220 -0.000003 1.709736 76.221318 -0.000001 0.113772 1.960660 -88.303882 110.208688 0.000023 -0.669733 -0.113771 0.388339 0.309066 2.626348 49.314314 
0.000000 0.000000 0.000000 -0.000000 1.019410 81.034136 -0.000000 0.000000 1.456275 -0.000003 -65.463907 -0.000000 -0.000000 0.000002 1.471446 -0.000001 -1.133457 39.587391 0.625745 0.000000 0.917755 -0.000000 93.669610 -0.000025 -0.629534 0.000001 0.940221 -0.000003 1.709736 75.423218 -0.000001 0.113772 1.960660 -88.303882 109.996884 -0.000004 -0.669734 -0.113772 0.388340 0.307742 2.642198 50.210473 
0.000000 0.000000 0.000000 -0.000000 1.019410 80.164154 -0.000000 0.000000 1.456275 -0.000000 -65.244036 0.000001 -0.000000 0.000002 1.471446 -0.000000 -1.133457 39.162112 0.625745 0.000000 0.917755 0.000020 94.113504 -0.000058 -0.629533 0.000001 0.940221 -0.000005 1.709738 74.613383 -0.000001 0.113772 1.960660 -88.303875 109.781965 0.000011 -0.669733 -0.113771 0.388340 0.306147 2.658253 51.119841 
0.000000 0.000000 0.000000 -0.000000 1.019410 79.304090 -0.000000 0.000000 1.456275 -0.000001 -65.026666 -0.000000 -0.000000 0.000002 1.471446 -0.000002 -1.133458 38.741687 0.625744 0.000000 0.917754 0.000040 94.552330 0.000023 -0.629533 0.000001 0.940221 -0.000000 1.709736 73.812775 -0.000001 0.113773 1.960660 -88.303882 109.569485 0.000012 -0.669733 -0.113771 0.388340 0.304322 2.674105 52.018861 
0.000000 0.000000 0.000000 -0.000000 1.019410 78.470001 -0.000000 0.000000 1.456275 0.000002 -64.815866 0.000000 -0.000000 0.000002 1.471446 0.000000 -1.133458 38.333959 0.625745 0.000001 0.917755 0.000029 94.977906 -0.000001 -0.629534 0.000001 0.940221 -0.000003 1.709738 73.036340 -0.000001 0.113772 1.960660 -88.303882 109.363425 0.000008 -0.669733 -0.113772 0.388341 0.302312 2.689442 52.890734 
0.000000 0.000000 0.000000 -0.000000 1.019410 77.651949 -0.000000 0.000000 1.456275 -0.000001 -64.609123 -0.000001 -0.000000 0.000002 1.471446 -0.000002 -1.133458 37.934065 0.625745 0.000001 0.917755 0.000068 95.395306 -0.000006 -0.629534 0.000001 0.940221 -0.000004 1.709741 72.274856 -0.000001 0.113772 1.960661 -88.303875 109.161333 -0.000001 -0.669733 -0.113772 0.388339 0.300110 2.704459 53.745843 
0.000000 0.000000 0.000000 -0.000000 1.019410 76.833549 -0.000000 -0.000000 1.456275 -0.000003 -64.402277 -0.000002 -0.000000 0.000002 1.471446 -0.000001 -1.133456 37.534007 0.625745 0.000001 0.917755 0.000059 95.812869 0.000006 -0.629534 0.000001 0.940221 -0.000002 1.709737 71.513030 -0.000001 0.113772 1.960661 -88.303868 108.959139 0.000002 -0.669733 -0.113770 0.388340 0.297690 2.719446 54.601352 
0.000000 0.000000 0.000000 -0.000000 1.019410 75.998374 -0.000000 -0.000000 1.456275 -0.000003 -64.191224 -0.000001 -0.000000 0.000002 1.471446 -0.000001 -1.133458 37.125739 0.625744 0.000001 0.917755 0.000050 96.238998 -0.000019 -0.629534 0.000001 0.940221 -0.000002 1.709736 70.735591 -0.000001 0.113772 1.960661 -88.303862 108.752820 -0.000001 -0.669733 -0.113770 0.388340 0.294988 2.734700 55.474387 
0.000000 0.000000 0.000000 -0.000000 1.019410 75.130018 -0.000000 0.000000 1.456275 0.000004 -63.971757 -0.000003 -0.000000 0.000002 1.471446 -0.000001 -1.133460 36.701263 0.625744 0.000000 0.917755 0.000032 96.682065 -0.000002 -0.629534 0.000001 0.940220 -0.000002 1.709734 69.927258 -0.000001 0.113773 1.960660 -88.303868 108.538283 0.000005 -0.669733 -0.113771 0.388340 0.291930 2.750514 56.382143 
0.000000 0.000000 0.000000 -0.000000 1.019410 74.211426 -0.000000 0.000000 1.456275 -0.000000 -63.739605 -0.000001 -0.000000 0.000002 1.471446 -0.000001 -1.133459 36.252219 0.625745 0.000001 0.917755 0.000022 97.150760 0.000005 -0.629534 0.000001 0.940221 0.000002 1.709733 69.072173 -0.000001 0.113772 1.960660 -88.303882 108.311357 0.000005 -0.669733 -0.113771 0.388340 0.288424 2.767194 57.342409 
0.000000 0.000000 0.000000 -0.000000 1.019410 73.223023 -0.000000 0.000000 1.456275 0.000004 -63.489805 0.000001 -0.000000 0.000002 1.471446 0.000001 -1.133458 35.769059 0.625745 0.000000 0.917755 -0.000000 97.655060 0.000003 -0.629534 0.000001 0.940221 -0.000002 1.709737 68.152099 -0.000000 0.113772 1.960661 -88.303868 108.067178 0.000005 -0.669733 -0.113771 0.388341 0.284340 2.785062 58.375673 
0.000000 0.000000 0.000000 -0.000000 1.019410 72.144604 -0.000000 0.000000 1.456275 -0.000004 -63.217246 0.000002 -0.000000 0.000002 1.471446 -0.000002 -1.133455 35.241891 0.625744 0.000000 0.917755 -0.000004 98.205314 -0.000005 -0.629534 0.000001 0.940221 -0.000004 1.709740 67.148225 -0.000001 0.113772 1.960660 -88.303875 107.800746 0.000005 -0.669733 -0.113771 0.388340 0.279511 2.804480 59.503064 
